<svg xmlns="http://www.w3.org/2000/svg" width="35" height="35" viewBox="0 0 35 35">
  <path id="doctor" d="M24.193,29.46a1.164,1.164,0,1,1-.826.341,1.167,1.167,0,0,1,.826-.341ZM25.226,12.2a1.113,1.113,0,0,1,.629.421,2.361,2.361,0,0,1,.309,1.708,4.3,4.3,0,0,1-.632,1.765,1.648,1.648,0,0,1-1.43.9c-.04,1.853-.953,2.7-2.142,3.818l-.455.43-.154.145.037.026a4.2,4.2,0,0,1-.452.313,5.073,5.073,0,0,1-1.319.7,5.883,5.883,0,0,1-1.957.319,6.148,6.148,0,0,1-2.034-.313l-.286-.1a4.639,4.639,0,0,1-1.07-.473l-.143-.088a6.134,6.134,0,0,1-.646,1.358l4.439,3.078,4.17-3.459a6.515,6.515,0,0,1-.638-1.287c1.839,1.3,2.237,4.017,2.177,6.209a4.024,4.024,0,0,1-.023.453A2.533,2.533,0,0,0,22.36,32.4a2.437,2.437,0,0,0,3.367.2A2.53,2.53,0,0,0,26.7,30.6a2.252,2.252,0,0,0-.309-1.139,3.081,3.081,0,0,0-1.608-1.31c-.049-.026,0-.134,0-.436a13.443,13.443,0,0,0-.418-4.009,6.023,6.023,0,0,0,.973.4c2.546.6,5.675.854,6.8,1.48A4.571,4.571,0,0,1,33.57,26.8c.993,1.3,1.076,5.056,1.43,6.651A1.587,1.587,0,0,1,33.335,35H1.665A1.614,1.614,0,0,1,0,33.437c.36-1.594.446-5.349,1.43-6.651a4.451,4.451,0,0,1,1.445-1.213c1.593-.883,5.5-1.122,8.095-1.839a9.373,9.373,0,0,0-.452,2.278c-.286.219-1.041.475-1.279.757a10.975,10.975,0,0,0-1.1,1.574.567.567,0,0,0-.077.285c0,.08.083.162.049.231l-.054.105c-.744,1.423-1.227,3.021-1,3.7a1.04,1.04,0,0,0,.755.646,3.572,3.572,0,0,0,.9.117h.269a.878.878,0,0,0,.149.111,1.181,1.181,0,0,0,.192.091.741.741,0,0,0,.26.048.709.709,0,0,0,.652-1.008.738.738,0,0,0-.681-.458c-.263,0-.638.131-.638.393h0v.017H8.73a2.635,2.635,0,0,1-.666-.08c-.129-.034-.2-.083-.22-.137-.166-.478.286-1.8.941-3.083l.083-.157a.571.571,0,0,0,.286-.251,9.679,9.679,0,0,1,.975-1.4,2.032,2.032,0,0,1,.967-.49h.06a3.007,3.007,0,0,1,.492.441,8.724,8.724,0,0,1,1.03,1.423c.066.117.226.142.286.253a6.094,6.094,0,0,1,1.081,3.149c-.023.125-.126.2-.286.251a3.014,3.014,0,0,1-.749.105.5.5,0,0,0-.029-.054h0c0-.262-.378-.384-.641-.393a.738.738,0,0,0-.681.458.769.769,0,0,0-.066.285.716.716,0,0,0,.718.715.755.755,0,0,0,.263-.048,1.146,1.146,0,0,0,.189-.091.936.936,0,0,0,.1-.071h.1a3.511,3.511,0,0,0,1.047-.137,1.107,1.107,0,0,0,.83-.868,7.506,7.506,0,0,0-1.127-3.616.567.567,0,0,0,.046-.231.6.6,0,0,0-.08-.285,10.251,10.251,0,0,0-1.173-1.623c-.237-.265-.761-.342-.815-.695a4.913,4.913,0,0,1,.858-3.049,4.311,4.311,0,0,0,.418-.623l.092-.125a2.382,2.382,0,0,1,.975-.592q-.209-.157-.42-.342l-.441-.393-.029-.026a5.141,5.141,0,0,1-2.288-3.861c-.8-.068-1.359-.82-1.636-1.708a4.308,4.308,0,0,1-.186-1.463,2.219,2.219,0,0,1,.432-1.3,1.23,1.23,0,0,1,.18-.185l-.04-.026c-.183-2.278.352-6.212-2.125-6.958C12.16-.439,17.308-1.5,21.625,2.032c4.485.248,6.65,6.693,3.6,10.169ZM12.068,10.778a3.968,3.968,0,0,0-.057,2.164.474.474,0,0,1-.193.536.479.479,0,0,1-.571-.032c-.572-.484-.918-.53-1.067-.353a1.333,1.333,0,0,0-.215.74,3.336,3.336,0,0,0,.146,1.139c.195.635.572,1.156,1.024,1.025a.434.434,0,0,1,.137-.023.477.477,0,0,1,.489.464,4.363,4.363,0,0,0,2,3.673l.029.023.458.4a4.83,4.83,0,0,0,1.665.985,4.966,4.966,0,0,0,1.27.248,7.184,7.184,0,0,0,.958-.046,6.8,6.8,0,0,0,1.273-.259,4.292,4.292,0,0,0,1.4-.92l.463-.438c1.144-1.065,1.979-1.851,1.819-3.761a.478.478,0,0,1,.741-.436c.323.214.644,0,.881-.353a3.3,3.3,0,0,0,.483-1.361,1.494,1.494,0,0,0-.117-1c-.114-.148-.42-.088-1.01.359a.479.479,0,0,1-.546.052.475.475,0,0,1-.235-.493c.418-2.431.209-3.935-.326-4.937a4.558,4.558,0,0,0-2-1.8,7.528,7.528,0,0,1-4.236,1.643A6.626,6.626,0,0,0,13.352,9.19a3.24,3.24,0,0,0-1.279,1.589Z" transform="translate(0 -0.003)"/>
</svg>
