<svg xmlns="http://www.w3.org/2000/svg" width="38" height="35" viewBox="0 0 38 35">
  <defs>
    <style>
      .cls-1 {
        opacity: 0.8;
      }

      .cls-2 {
        fill-rule: evenodd;
      }
    </style>
  </defs>
  <g id="Group_409" data-name="Group 409" transform="translate(-67 -585)">
    <g id="Component_63_2" data-name="Component 63 – 2" transform="translate(67 585)">
      <g id="_5722348461605810028" data-name="5722348461605810028" class="cls-1" transform="translate(3)">
        <path id="Path_8" data-name="Path 8" class="cls-2" d="M12.486,20.5l2.774,7.472,1.4-4.435-.684-.686a.969.969,0,0,1-.205-1.083c.37-.67,1.136-.545,1.851-.545.749,0,1.678-.13,1.911.73a1.061,1.061,0,0,1-.239.9l-.684.686L20,27.969,22.514,20.5c1.811,1.492,7.174,1.792,9.171,2.812a5.162,5.162,0,0,1,1.66,1.286,5.862,5.862,0,0,1,1.239,3.337L35,30.367c-.1.986-.712,1.555-1.917,1.641H1.917C.712,31.924.1,31.356,0,30.367l.416-2.434A5.862,5.862,0,0,1,1.655,24.6a5.09,5.09,0,0,1,1.66-1.286c2-1.02,7.359-1.32,9.171-2.812ZM11.23,9.8a1.611,1.611,0,0,0-.78.188.6.6,0,0,0-.225.237.789.789,0,0,0-.074.381,3.243,3.243,0,0,0,.738,1.646l.006.01h0l1.549,2.259a12.275,12.275,0,0,0,2.082,2.507,4.464,4.464,0,0,0,2.973,1.1,4.591,4.591,0,0,0,3.144-1.145A12.751,12.751,0,0,0,22.787,14.3l1.746-2.635a2.4,2.4,0,0,0,.37-1.4c-.046-.159-.236-.237-.561-.25-.068,0-.14,0-.214,0s-.159.008-.245.013a.568.568,0,0,1-.134-.008,2.7,2.7,0,0,1-.478-.023l.6-2.424a14.534,14.534,0,0,1-7.96-2.058c-.849-.5-1.105-1.064-1.954-1.01a2.962,2.962,0,0,0-1.609.8,3.721,3.721,0,0,0-.923,1.664l.339,2.857A2.734,2.734,0,0,1,11.23,9.8ZM24.941,9.3a1.072,1.072,0,0,1,.817.775,2.972,2.972,0,0,1-.424,1.938h0l-.026.047-1.766,2.666a13.348,13.348,0,0,1-2.3,2.849A5.474,5.474,0,0,1,17.5,18.932a5.347,5.347,0,0,1-3.563-1.307,12.9,12.9,0,0,1-2.236-2.671L10.156,12.7a3.942,3.942,0,0,1-.88-2.064A1.525,1.525,0,0,1,9.427,9.9,1.4,1.4,0,0,1,9.96,9.33a1.856,1.856,0,0,1,.376-.175A33.046,33.046,0,0,1,10.262,5.1a5.09,5.09,0,0,1,.191-.921,5.536,5.536,0,0,1,2.62-3.058,7.479,7.479,0,0,1,1.41-.629C17.459-.5,21.406.037,23.519,2.129a5.283,5.283,0,0,1,1.518,3.48l-.1,3.686Z" transform="translate(0 -0.008)"/>
      </g>
      <g id="_5722348461605810028-2" data-name="5722348461605810028">
        <path id="Path_8-2" data-name="Path 8" class="cls-2" d="M12.486,22.419l2.774,8.172,1.4-4.851-.684-.75a1.136,1.136,0,0,1-.205-1.184c.37-.733,1.136-.6,1.851-.6.749,0,1.678-.143,1.911.8a1.241,1.241,0,0,1-.239.982l-.684.75L20,30.591l2.512-8.172c1.811,1.632,7.174,1.96,9.171,3.076a5.251,5.251,0,0,1,1.66,1.407,6.776,6.776,0,0,1,1.239,3.649L35,33.213a1.836,1.836,0,0,1-1.917,1.795H1.917A1.832,1.832,0,0,1,0,33.213l.416-2.662A6.776,6.776,0,0,1,1.655,26.9a5.179,5.179,0,0,1,1.66-1.407c2-1.116,7.359-1.444,9.171-3.076Zm-1.256-11.7a1.5,1.5,0,0,0-.78.205.633.633,0,0,0-.225.26.932.932,0,0,0-.074.417,3.723,3.723,0,0,0,.738,1.8l.006.011h0l1.549,2.471a13.23,13.23,0,0,0,2.082,2.742,4.25,4.25,0,0,0,2.973,1.2,4.37,4.37,0,0,0,3.144-1.253,13.8,13.8,0,0,0,2.145-2.93l1.746-2.882a2.82,2.82,0,0,0,.37-1.535c-.046-.174-.236-.26-.561-.274-.068,0-.14,0-.214,0s-.159.009-.245.014a.52.52,0,0,1-.134-.009,2.471,2.471,0,0,1-.478-.026l.6-2.651a13.584,13.584,0,0,1-7.96-2.251c-.849-.542-1.105-1.164-1.954-1.1a2.875,2.875,0,0,0-1.609.873,4.185,4.185,0,0,0-.923,1.82l.339,3.124a2.5,2.5,0,0,1-.533-.02Zm13.711-.556a1.121,1.121,0,0,1,.817.847,3.507,3.507,0,0,1-.424,2.12h0l-.026.051L23.542,16.1a14.442,14.442,0,0,1-2.3,3.116A5.21,5.21,0,0,1,17.5,20.707a5.088,5.088,0,0,1-3.563-1.43,13.888,13.888,0,0,1-2.236-2.922l-1.549-2.468a4.536,4.536,0,0,1-.88-2.257,1.8,1.8,0,0,1,.151-.808A1.488,1.488,0,0,1,9.96,10.2a1.788,1.788,0,0,1,.376-.191,39.523,39.523,0,0,1-.074-4.44,6.026,6.026,0,0,1,.191-1.007,5.94,5.94,0,0,1,2.62-3.344,7.178,7.178,0,0,1,1.41-.688C17.459-.551,21.406.04,23.519,2.328a6.041,6.041,0,0,1,1.518,3.806l-.1,4.032Z" transform="translate(0 -0.008)"/>
      </g>
    </g>
  </g>
</svg>
