<svg id="svg" version="1.1" xmlns="http://www.w3.org/2000/svg" xmlns:xlink="http://www.w3.org/1999/xlink" width="400" height="400" viewBox="0, 0, 400,400"><g id="svgg"><path id="path0" d="M116.687 119.967 C 96.541 123.633,74.510 145.499,68.695 167.600 C 60.001 200.645,76.073 231.273,112.000 250.127 C 114.860 251.628,119.000 253.907,121.200 255.192 C 132.553 261.822,139.532 263.980,149.661 263.994 C 153.426 263.999,154.423 264.323,156.061 266.076 C 159.035 269.260,161.698 270.312,168.793 271.106 C 173.293 271.609,176.841 272.581,180.255 274.247 C 200.832 284.283,218.946 277.282,222.289 258.000 C 222.642 255.967,223.274 254.800,224.022 254.800 C 224.753 254.800,225.451 256.015,225.862 258.000 C 227.594 266.372,233.228 273.667,241.200 277.863 L 246.000 280.389 259.200 280.395 C 275.569 280.401,286.995 277.260,297.744 269.799 C 302.572 266.448,302.697 266.468,306.988 271.240 C 315.760 280.997,326.560 281.004,331.091 271.257 C 337.581 257.295,327.839 228.957,314.852 224.020 C 312.496 223.124,312.410 222.252,314.016 215.600 C 318.609 196.578,308.983 172.651,293.600 164.854 C 274.909 155.380,259.781 156.515,233.979 169.326 C 220.954 175.793,208.789 180.800,206.103 180.800 C 202.247 180.800,200.416 171.951,203.295 167.229 C 207.162 160.886,206.605 149.143,202.104 142.112 C 195.507 131.807,183.199 130.063,179.502 138.911 L 178.338 141.697 174.569 137.959 C 159.685 123.198,137.252 116.225,116.687 119.967 M138.622 125.979 C 157.159 129.018,167.075 135.792,181.977 155.600 C 188.022 163.635,191.200 168.196,191.200 168.837 C 191.200 169.256,191.553 169.600,191.984 169.600 C 192.415 169.600,193.499 170.950,194.392 172.600 C 195.286 174.250,196.354 176.140,196.766 176.800 C 209.083 196.519,198.294 237.499,177.734 249.089 C 176.845 249.590,174.381 251.030,172.259 252.288 C 155.771 262.064,139.597 260.543,117.600 247.148 C 116.940 246.746,114.960 245.647,113.200 244.707 C 106.207 240.970,94.606 232.798,91.200 229.209 C 85.442 223.144,85.239 222.899,83.181 219.571 C 70.007 198.265,69.841 172.097,82.759 153.200 C 97.883 131.077,115.967 122.265,138.622 125.979 M195.020 140.968 C 202.185 147.562,203.704 166.739,196.958 165.440 C 195.204 165.102,191.911 156.535,191.399 150.977 C 190.747 143.895,187.888 143.705,187.717 150.733 L 187.628 154.392 185.704 152.467 C 178.323 145.086,187.366 133.925,195.020 140.968 M280.800 165.943 C 312.778 172.799,319.918 218.311,292.000 237.338 C 286.332 241.201,284.357 242.819,284.355 243.600 C 284.350 245.469,294.236 240.944,303.533 234.822 C 313.166 228.478,318.069 230.175,324.266 242.000 C 335.148 262.764,321.688 284.149,309.254 265.851 L 307.231 262.874 309.616 258.649 C 314.088 250.724,312.842 250.143,306.080 257.000 C 301.619 261.525,298.874 263.665,292.772 267.378 C 281.440 274.272,257.097 277.786,246.400 274.072 C 231.517 268.904,226.265 255.250,232.817 238.758 C 236.700 228.982,237.837 227.289,247.131 217.438 C 253.251 210.953,251.472 209.623,244.400 215.397 C 234.565 223.428,228.811 232.061,225.979 243.034 C 224.381 249.229,222.515 250.510,220.490 246.800 C 215.166 237.045,204.451 227.912,202.321 231.314 C 201.848 232.069,202.550 233.199,204.620 235.017 C 213.607 242.909,216.017 246.720,216.598 253.955 C 218.164 273.458,195.638 281.969,180.400 267.633 C 176.102 263.590,173.237 262.061,171.328 262.794 C 170.417 263.143,170.355 263.475,171.066 264.186 C 174.069 267.189,165.739 266.934,161.632 263.897 L 159.219 262.113 164.773 260.303 C 170.754 258.353,176.997 255.173,179.652 252.724 C 180.560 251.886,181.686 251.200,182.154 251.200 C 182.621 251.200,183.447 250.666,183.989 250.014 C 186.470 247.024,195.971 247.074,198.474 250.089 C 199.665 251.525,201.600 251.522,201.600 250.085 C 201.600 247.998,197.156 244.139,194.089 243.564 L 191.105 243.004 192.753 241.251 C 193.659 240.286,194.400 239.226,194.400 238.895 C 194.400 238.564,195.257 237.147,196.304 235.747 C 203.218 226.498,206.671 214.270,206.822 198.497 L 206.932 186.993 213.666 184.451 C 217.370 183.052,224.720 179.815,230.000 177.257 C 247.863 168.604,251.351 167.198,258.000 165.975 C 265.496 164.596,274.458 164.583,280.800 165.943 M116.533 169.087 C 123.612 177.129,124.054 185.471,117.759 192.200 C 115.018 195.130,114.028 194.974,113.141 191.477 C 112.062 187.219,109.244 185.509,102.161 184.816 C 93.433 183.961,88.346 179.601,87.873 172.567 C 87.623 168.864,86.425 169.875,85.834 174.288 C 84.746 182.399,91.399 188.749,101.026 188.788 C 105.544 188.806,109.574 190.739,109.725 192.959 C 110.249 200.663,110.129 200.478,113.814 199.262 C 128.105 194.545,131.054 177.691,119.225 168.330 C 114.302 164.434,112.808 164.854,116.533 169.087 M165.264 186.400 C 165.009 187.720,164.601 189.835,164.359 191.100 C 163.775 194.140,161.157 196.456,157.082 197.537 C 149.873 199.450,153.492 203.953,160.901 202.288 C 168.054 200.682,171.963 193.515,169.896 185.800 C 169.130 182.942,165.850 183.366,165.264 186.400 M132.931 225.011 C 131.986 228.766,127.838 233.600,125.562 233.600 C 122.277 233.600,120.639 237.029,123.255 238.429 C 127.846 240.886,136.555 234.965,137.378 228.826 C 138.347 221.604,134.599 218.389,132.931 225.011 M176.478 222.988 C 176.215 223.251,176.000 223.970,176.000 224.585 C 176.000 230.136,170.481 235.817,163.747 237.196 C 159.821 238.000,161.286 240.354,165.896 240.647 C 173.434 241.128,181.312 232.304,179.563 225.338 C 179.060 223.334,177.399 222.068,176.478 222.988 " stroke="none" fill="#000000" fill-rule="evenodd"></path></g></svg>