<svg xmlns="http://www.w3.org/2000/svg" width="17" height="17" viewBox="0 0 17 17">
  <path id="Path_648" data-name="Path 648" d="M9.866,12.143l1.821-1.67a.558.558,0,0,1,.455-.152l.3.152,4.25,1.973c.3.152.3.3.3.607a3.848,3.848,0,0,1-1.214,2.732A4.348,4.348,0,0,1,12.6,17a9.248,9.248,0,0,1-4.25-1.062A19.9,19.9,0,0,1,4.1,12.9,25.853,25.853,0,0,1,1.821,9.563,20.981,20.981,0,0,1,.3,6.223,9.341,9.341,0,0,1,0,3.339,3.989,3.989,0,0,1,1.063,1.063,4.616,4.616,0,0,1,3.946,0a.789.789,0,0,1,.607.3L6.83,4.554a.53.53,0,0,0,.152.3.558.558,0,0,1-.152.455L4.857,7.134a.678.678,0,0,0,0,.759,14.5,14.5,0,0,0,1.821,2.429,15.326,15.326,0,0,0,2.429,1.973C9.411,12.446,9.714,12.446,9.866,12.143Z" transform="translate(0 0)"/>
</svg>
