<svg xmlns="http://www.w3.org/2000/svg" width="37.55" height="36.38" viewBox="0 0 37.55 36.38">
  
  <path id="Combined_Shape" data-name="Combined Shape" class="cls-1" d="M22.011,36.38a2.06,2.06,0,0,1-.245-4.109l.245-.015H35.444a2.06,2.06,0,0,1,.246,4.109l-.246.015Zm-18.3,0a2.085,2.085,0,0,1-2.051-1.594L.138,28.366a5.025,5.025,0,0,1,.976-4.322l17.461-21.8A5.819,5.819,0,0,1,23.182,0a7.314,7.314,0,0,1,4.39,1.582L30.5,3.829c3.037,2.328,3.661,5.99,1.486,8.708l-17.457,21.8a5.248,5.248,0,0,1-4.055,1.963l-6.734.083Zm.72-9.795a.985.985,0,0,0-.193.846l1.141,4.8,5.043-.061a1.036,1.036,0,0,0,.663-.25l.125-.132L24.1,15.7l-6.783-5.2ZM26.7,12.453l1.97-2.459c.724-.9.434-2-.772-2.922L24.974,4.825a2.96,2.96,0,0,0-1.74-.7,1.684,1.684,0,0,0-1.344.666L19.92,7.25Z"/>
</svg>
