<?xml version="1.0" standalone="no"?>
<!DOCTYPE svg PUBLIC "-//W3C//DTD SVG 20010904//EN"
 "http://www.w3.org/TR/2001/REC-SVG-20010904/DTD/svg10.dtd">
<svg version="1.0" xmlns="http://www.w3.org/2000/svg"
 width="356.000000px" height="381.000000px" viewBox="0 0 356.000000 381.000000"
 preserveAspectRatio="xMidYMid meet">

<g transform="translate(0.000000,381.000000) scale(0.100000,-0.100000)"
fill="#000000" stroke="none">
<path d="M1220 3325 c0 -10 32 -68 54 -100 71 -101 150 -190 307 -345 173
-172 217 -227 280 -352 l31 -63 -28 25 c-16 14 -38 35 -50 47 -21 21 -91 83
-148 131 -15 13 -31 20 -34 17 -4 -4 6 -17 23 -29 16 -11 79 -69 140 -128 79
-77 124 -130 158 -186 50 -85 57 -115 30 -131 -10 -5 -14 -13 -10 -17 4 -4 13
1 21 11 17 24 23 12 31 -65 5 -55 4 -62 -7 -46 -7 10 -37 55 -67 100 -80 120
-160 214 -263 310 -64 59 -96 82 -103 75 -7 -7 -4 -15 10 -25 82 -58 195 -174
300 -309 87 -111 148 -266 157 -398 l5 -58 -35 -15 c-42 -17 -45 -15 -109 75
-47 66 -161 210 -262 331 -105 126 -271 275 -271 244 0 -19 39 -66 65 -78 71
-35 327 -327 514 -587 11 -15 11 -27 1 -67 -15 -58 -5 -97 33 -125 24 -19 27
-19 51 -4 14 10 32 17 40 17 17 0 49 -40 89 -112 l27 -46 -37 18 c-43 20 -68
16 -104 -17 -23 -21 -30 -23 -48 -14 -13 7 -21 22 -21 36 0 34 -41 61 -69 45
-44 -23 -54 -80 -18 -105 19 -13 20 -17 7 -25 -37 -24 -114 -1 -135 41 -30 57
-11 89 46 82 57 -8 106 12 114 47 3 16 1 38 -4 49 -26 48 -130 96 -197 90 -25
-2 -44 13 -134 103 -94 94 -250 221 -290 236 -62 24 -161 118 -204 193 -15 26
-20 30 -23 17 -7 -29 48 -109 132 -194 179 -180 275 -333 275 -436 l0 -43 -35
42 c-47 55 -84 64 -134 29 -20 -14 -44 -26 -52 -26 -9 0 -30 18 -48 40 -30 37
-32 44 -22 72 13 38 7 49 -10 16 -17 -33 -17 -33 -39 -13 -19 18 -19 18 1 47
12 16 19 31 16 34 -2 2 -12 -7 -21 -21 -18 -27 -36 -31 -68 -14 -20 11 -20 11
5 37 13 15 30 38 36 52 11 22 9 21 -16 -6 -69 -77 -93 -65 -226 113 -54 73
-109 176 -164 307 -61 145 -132 351 -133 380 0 11 -3 17 -6 14 -25 -26 84
-334 205 -578 89 -180 143 -245 286 -346 137 -97 142 -101 216 -205 38 -53 76
-99 83 -102 25 -10 80 29 115 79 31 46 33 53 28 111 -4 60 -30 124 -76 192
-10 14 -30 44 -45 66 -14 22 -46 62 -71 89 -49 54 -54 61 -27 47 63 -33 202
-146 293 -237 107 -105 108 -107 107 -152 -1 -41 4 -50 37 -80 33 -31 36 -37
25 -57 -18 -34 -3 -81 36 -113 24 -19 34 -35 34 -54 0 -27 30 -68 50 -68 5 0
24 -14 41 -31 29 -29 36 -31 85 -27 50 4 55 2 86 -29 20 -20 42 -33 57 -33 31
0 76 28 106 66 l22 27 129 -47 c128 -48 332 -116 347 -116 4 0 7 4 7 9 0 5
-15 13 -32 17 -38 8 -354 114 -413 139 -39 16 -40 17 -42 69 -1 66 -27 127
-100 233 -48 71 -55 87 -49 115 5 28 4 30 -6 13 -25 -46 -51 -65 -87 -65 l-36
1 27 16 c15 10 33 30 40 47 10 25 9 34 -9 67 -11 21 -18 40 -15 43 9 10 82 7
102 -4 29 -16 76 -90 110 -172 25 -62 29 -68 30 -40 0 19 5 32 13 32 47 0 299
-24 381 -36 87 -13 119 -13 105 0 -7 7 -264 36 -365 42 -144 8 -136 4 -188 92
-44 75 -70 99 -126 115 -10 3 -16 21 -18 58 -2 30 -8 72 -13 94 -5 22 -14 95
-19 161 -9 125 -30 194 -79 263 -12 16 -37 66 -56 112 -67 160 -120 231 -331
449 -140 143 -208 223 -266 307 -61 89 -88 119 -88 98z m814 -1627 c13 -36 -6
-78 -34 -78 -28 0 -35 24 -21 71 14 47 40 50 55 7z m-228 -58 c65 -23 90 -40
57 -40 -29 0 -40 -56 -17 -82 16 -17 16 -18 -12 -18 -37 0 -109 45 -123 78
-12 26 -6 62 13 74 15 11 16 10 82 -12z m-404 -29 c13 -5 34 -29 47 -57 l24
-47 -36 -34 c-50 -45 -68 -42 -112 18 -51 71 -51 74 -8 103 41 28 50 30 85 17z
m518 -50 c13 -25 3 -51 -21 -51 -21 0 -54 44 -44 60 11 17 54 11 65 -9z m38
-93 c31 -31 2 -86 -38 -73 -18 6 -20 12 -15 33 7 28 23 52 34 52 4 0 12 -5 19
-12z m236 -75 c31 -25 40 -41 48 -83 8 -45 6 -55 -13 -88 -41 -69 -97 -92
-133 -56 -20 19 -20 35 -1 60 22 29 18 51 -13 74 -25 19 -27 25 -22 66 4 35
11 49 29 59 31 16 58 8 105 -32z m-176 -5 c7 -7 12 -26 12 -44 0 -28 -4 -33
-31 -39 -37 -8 -42 -4 -42 34 0 49 34 76 61 49z m-50 -104 c21 -11 21 -11 -18
-29 -38 -17 -43 -17 -75 -2 -29 14 -35 22 -35 47 0 26 4 30 28 31 15 0 36 4
47 8 16 7 21 4 25 -18 3 -14 15 -31 28 -37z m108 -5 c21 -23 11 -51 -21 -57
-29 -6 -39 13 -25 47 15 37 21 38 46 10z m-61 -77 c-3 -3 -10 0 -15 8 -7 10
-10 11 -10 3 0 -7 -11 -13 -25 -13 -35 0 -31 24 8 41 30 13 32 13 41 -9 4 -13
5 -26 1 -30z"/>
<path d="M1767 1580 c-21 -24 -21 -27 -3 -27 8 0 16 11 19 24 5 28 6 28 -16 3z"/>
<path d="M1900 1306 c0 -2 8 -10 18 -17 15 -13 16 -12 3 4 -13 16 -21 21 -21
13z"/>
<path d="M1880 1286 c0 -2 7 -9 15 -16 13 -11 14 -10 9 4 -5 14 -24 23 -24 12z"/>
<path d="M506 2973 c12 -38 39 -174 45 -228 0 -5 4 1 8 15 13 45 -36 260 -59
260 -5 0 -2 -21 6 -47z"/>
<path d="M1476 2730 c10 -16 19 -28 21 -26 7 7 -17 56 -27 56 -7 0 -4 -13 6
-30z"/>
<path d="M563 2695 c0 -22 2 -30 4 -17 2 12 2 30 0 40 -3 9 -5 -1 -4 -23z"/>
<path d="M1211 2566 c2 -2 15 -9 29 -16 23 -12 24 -12 11 3 -7 10 -20 17 -29
17 -8 0 -13 -2 -11 -4z"/>
<path d="M1951 2256 c-8 -9 -11 -19 -7 -23 9 -9 29 13 24 27 -2 8 -8 7 -17 -4z"/>
<path d="M1916 2011 c-21 -22 -36 -45 -34 -52 2 -7 14 3 27 24 12 20 32 44 44
52 12 8 17 15 11 15 -5 0 -27 -18 -48 -39z"/>
<path d="M1939 1964 c-13 -15 -18 -25 -10 -22 13 4 49 48 39 48 -2 0 -15 -12
-29 -26z"/>
<path d="M1981 1909 c-15 -12 -21 -23 -15 -29 6 -6 16 1 27 20 21 35 20 36
-12 9z"/>
<path d="M1820 1807 c-37 -34 -71 -85 -61 -92 5 -3 19 11 31 30 12 20 35 42
51 51 16 8 27 19 24 24 -9 14 -17 12 -45 -13z"/>
<path d="M1836 1721 c-26 -28 -4 -33 23 -5 16 17 19 24 9 24 -8 0 -23 -9 -32
-19z"/>
<path d="M1892 1694 c-25 -17 -29 -34 -8 -34 7 0 21 11 30 25 19 29 11 32 -22
9z"/>
<path d="M2271 1474 c0 -11 3 -14 6 -6 3 7 2 16 -1 19 -3 4 -6 -2 -5 -13z"/>
<path d="M1811 1435 c-1 -21 15 -53 22 -45 2 3 -2 19 -9 35 -10 23 -13 25 -13
10z"/>
</g>
</svg>
