<svg xmlns="http://www.w3.org/2000/svg" width="35.977" height="35.58" viewBox="0 0 35.977 35.58">
  <g id="Notifications" transform="translate(1.029 0.275)">
    <path id="Path_1" data-name="Path 1" d="M31.881,30.013H21.232a4.259,4.259,0,1,1-8.519,0H2.064a2.047,2.047,0,0,1-1.917-1.5,2.3,2.3,0,0,1,.639-2.358,8.645,8.645,0,0,0,3.408-6.86V12.863C4.193,5.788,10.185.725,17.214.725S29.75,5.788,29.75,12.863v6.432a8.645,8.645,0,0,0,3.408,6.86,2.206,2.206,0,0,1-1.277,3.858Z" transform="translate(-0.05)" fill="none" stroke="#000" stroke-width="2" fill-rule="evenodd"/>
  </g>
</svg>