<svg id="save-svgrepo-com" xmlns="http://www.w3.org/2000/svg" width="37.546" height="36.384" viewBox="0 0 37.546 36.384">
  <g id="Group_1156" data-name="Group 1156" transform="translate(0 0)">
    <path id="Path_780" data-name="Path 780" d="M34.863,0H2.682A2.645,2.645,0,0,0,0,2.6V33.784a2.645,2.645,0,0,0,2.682,2.6H34.863a2.645,2.645,0,0,0,2.682-2.6V2.6A2.645,2.645,0,0,0,34.863,0Zm-14.8,2.373h4.162V6.681H20.063V2.373Zm-11.314,0h8.865V7.867a1.206,1.206,0,0,0,1.224,1.186H25.45a1.206,1.206,0,0,0,1.224-1.186V2.373h2.153v9.463H8.75ZM8.734,34.011v-9.6H28.812v9.6ZM35.1,33.784h0a.231.231,0,0,1-.234.227h-3.6V23.228a1.206,1.206,0,0,0-1.224-1.186H7.51a1.206,1.206,0,0,0-1.224,1.186V34.011h-3.6a.231.231,0,0,1-.234-.227V2.6a.231.231,0,0,1,.234-.227H6.3V13.022a1.206,1.206,0,0,0,1.224,1.186H30.052a1.206,1.206,0,0,0,1.224-1.186V2.373h3.587A.231.231,0,0,1,35.1,2.6V33.784Z" transform="translate(0 0)"/>
  </g>
</svg>
