<svg id="admin_icon" data-name="admin icon" xmlns="http://www.w3.org/2000/svg" width="35" height="35" viewBox="0 0 35 35">
  <defs>
    <style>
      .cls-1 {
        fill: #fff;
        fill-rule: evenodd;
      }
    </style>
  </defs>
  <path id="Path_8" data-name="Path 8" class="cls-1" d="M12.486,22.419l2.774,8.172,1.4-4.851-.684-.75a1.136,1.136,0,0,1-.205-1.184c.37-.733,1.136-.6,1.851-.6.749,0,1.678-.143,1.911.8a1.241,1.241,0,0,1-.239.982l-.684.75L20,30.591l2.512-8.172c1.811,1.632,7.174,1.96,9.171,3.076a5.251,5.251,0,0,1,1.66,1.407,6.776,6.776,0,0,1,1.239,3.649L35,33.213a1.836,1.836,0,0,1-1.917,1.795H1.917A1.832,1.832,0,0,1,0,33.213l.416-2.662A6.776,6.776,0,0,1,1.655,26.9a5.179,5.179,0,0,1,1.66-1.407c2-1.116,7.359-1.444,9.171-3.076Zm-1.256-11.7a1.5,1.5,0,0,0-.78.205.633.633,0,0,0-.225.26.932.932,0,0,0-.074.417,3.723,3.723,0,0,0,.738,1.8l.006.011h0l1.549,2.471a13.23,13.23,0,0,0,2.082,2.742,4.25,4.25,0,0,0,2.973,1.2,4.37,4.37,0,0,0,3.144-1.253,13.8,13.8,0,0,0,2.145-2.93l1.746-2.882a2.82,2.82,0,0,0,.37-1.535c-.046-.174-.236-.26-.561-.274-.068,0-.14,0-.214,0s-.159.009-.245.014a.52.52,0,0,1-.134-.009,2.471,2.471,0,0,1-.478-.026l.6-2.651a13.584,13.584,0,0,1-7.96-2.251c-.849-.542-1.105-1.164-1.954-1.1a2.875,2.875,0,0,0-1.609.873,4.185,4.185,0,0,0-.923,1.82l.339,3.124a2.5,2.5,0,0,1-.533-.02Zm13.711-.556a1.121,1.121,0,0,1,.817.847,3.507,3.507,0,0,1-.424,2.12h0l-.026.051L23.542,16.1a14.442,14.442,0,0,1-2.3,3.116A5.21,5.21,0,0,1,17.5,20.707a5.088,5.088,0,0,1-3.563-1.43,13.888,13.888,0,0,1-2.236-2.922l-1.549-2.468a4.536,4.536,0,0,1-.88-2.257,1.8,1.8,0,0,1,.151-.808A1.488,1.488,0,0,1,9.96,10.2a1.788,1.788,0,0,1,.376-.191,39.523,39.523,0,0,1-.074-4.44,6.026,6.026,0,0,1,.191-1.007,5.94,5.94,0,0,1,2.62-3.344,7.178,7.178,0,0,1,1.41-.688C17.459-.551,21.406.04,23.519,2.328a6.041,6.041,0,0,1,1.518,3.806l-.1,4.032Z" transform="translate(0 -0.008)"/>
</svg>
