<svg id="Trailing_icon" data-name="Trailing icon" xmlns="http://www.w3.org/2000/svg" width="35" height="25.5" viewBox="0 0 35 25.5">
  <defs>
    <style>
      .cls-1 {
        fill: none;
      }

      .cls-2 {
        fill: rgba(0,0,0,0.6);
      }
    </style>
  </defs>
  <rect id="Boundary" class="cls-1" width="24" height="24"/>
  <path id="_Color" data-name=" ↳Color" class="cls-2" d="M17,21A19.466,19.466,0,0,1,6.6,18.055,16.958,16.958,0,0,1,0,10.5,16.957,16.957,0,0,1,6.6,2.945,19.467,19.467,0,0,1,17,0,19.467,19.467,0,0,1,27.4,2.945,16.958,16.958,0,0,1,34,10.5a16.957,16.957,0,0,1-6.6,7.555A19.466,19.466,0,0,1,17,21ZM17,3.5c-4.26,0-7.727,3.14-7.727,7s3.466,7,7.727,7,7.728-3.14,7.728-7S21.261,3.5,17,3.5Zm0,11.2a4.44,4.44,0,0,1-4.636-4.2A4.439,4.439,0,0,1,17,6.3a4.44,4.44,0,0,1,4.637,4.2A4.44,4.44,0,0,1,17,14.7Z" transform="translate(1 4.5)"/>
</svg>
